<?xml version="1.0" encoding="iso-8859-1"?>
<!-- Uploaded to: SVG Repo, www.svgrepo.com, Generator: SVG Repo Mixer Tools -->
<svg version="1.1" id="Layer_1" xmlns="http://www.w3.org/2000/svg" xmlns:xlink="http://www.w3.org/1999/xlink" 
	 viewBox="0 0 512 512" xml:space="preserve">
<path style="fill:#FEA921;" d="M481.976,284.111H30.023l35.291-158.38c2.348-10.538,13.28-18.174,26.019-18.174h329.334
	c12.739,0,23.671,7.636,26.019,18.174L481.976,284.111z"/>
<path style="fill:#EA8500;" d="M446.687,125.732c-2.348-10.538-13.28-18.174-26.019-18.174h-23.676
	c12.739,0,23.671,7.636,26.019,18.174l35.291,158.38h23.676L446.687,125.732z"/>
<path style="fill:#FE9901;" d="M481.976,284.111H30.023l35.291,158.38c2.348,10.538,13.28,18.174,26.019,18.174h329.334
	c12.739,0,23.671-7.636,26.019-18.174L481.976,284.111z"/>
<path style="fill:#ED8803;" d="M458.301,284.111l-35.29,158.38c-2.348,10.538-13.28,18.174-26.019,18.174h23.676
	c12.739,0,23.671-7.636,26.019-18.174l35.291-158.38L458.301,284.111L458.301,284.111z"/>
<g>
	<rect x="110.589" y="264.408" style="fill:#C7AC91;" width="57.235" height="39.407"/>
	<rect x="344.176" y="264.408" style="fill:#C7AC91;" width="57.235" height="39.407"/>
</g>
<g>
	<rect x="110.589" y="264.408" style="fill:#DECCBC;" width="57.235" height="19.612"/>
	<rect x="344.176" y="264.408" style="fill:#DECCBC;" width="57.235" height="19.612"/>
</g>
<g>
	<path style="fill:#EA8500;" d="M129.286,242.908c-0.436,0-0.878-0.037-1.323-0.112c-4.27-0.726-7.143-4.774-6.417-9.043
		l15.677-92.284c0.726-4.269,4.777-7.142,9.043-6.417c4.27,0.726,7.143,4.774,6.417,9.043l-15.677,92.284
		C136.356,240.204,133.039,242.908,129.286,242.908z"/>
	<path style="fill:#EA8500;" d="M192.647,242.908c-0.223,0-0.446-0.009-0.672-0.028c-4.315-0.367-7.516-4.161-7.149-8.477
		l7.839-92.284c0.367-4.315,4.163-7.503,8.477-7.149c4.315,0.367,7.516,4.161,7.149,8.477l-7.839,92.284
		C200.103,239.818,196.676,242.908,192.647,242.908z"/>
	<path style="fill:#EA8500;" d="M256,242.907c-4.33,0-7.841-3.511-7.841-7.841v-92.284c0-4.33,3.511-7.841,7.841-7.841
		c4.33,0,7.841,3.511,7.841,7.841v92.284C263.841,239.397,260.33,242.907,256,242.907z"/>
	<path style="fill:#EA8500;" d="M319.353,242.908c-4.03,0-7.456-3.089-7.804-7.178l-7.839-92.284
		c-0.367-4.315,2.834-8.11,7.149-8.477c4.324-0.363,8.11,2.835,8.477,7.149l7.839,92.284c0.367,4.315-2.834,8.11-7.149,8.477
		C319.799,242.898,319.575,242.908,319.353,242.908z"/>
	<path style="fill:#EA8500;" d="M382.714,242.908c-3.754,0-7.072-2.704-7.721-6.529l-15.677-92.284
		c-0.726-4.269,2.147-8.318,6.417-9.043c4.27-0.727,8.318,2.148,9.043,6.417l15.677,92.284c0.726,4.269-2.147,8.318-6.417,9.043
		C383.592,242.872,383.15,242.908,382.714,242.908z"/>
</g>
<path d="M489.793,284.561c0.008-0.15,0.023-0.299,0.023-0.448s-0.014-0.299-0.023-0.448c-0.008-0.142-0.01-0.283-0.026-0.424
	c-0.018-0.161-0.051-0.32-0.078-0.479c-0.021-0.117-0.031-0.235-0.057-0.352l-35.291-158.38
	c-3.138-14.085-17.3-24.309-33.673-24.309h-91.995V75.466c0-17.63-14.343-31.972-31.973-31.972H215.3
	c-13.141,0-24.793,7.881-29.685,20.077c-1.612,4.02,0.34,8.584,4.36,10.196c4.022,1.611,8.585-0.34,10.195-4.36
	c2.492-6.215,8.431-10.232,15.129-10.232h81.399c8.983,0,16.291,7.308,16.291,16.29v24.252H199.01v-7.463
	c0-4.33-3.511-7.841-7.841-7.841c-4.33,0-7.841,3.511-7.841,7.841v7.463H91.333c-16.373,0-30.535,10.224-33.673,24.31
	L23.737,276.272H7.841c-4.33,0-7.841,3.511-7.841,7.841s3.511,7.841,7.841,7.841h15.896l11.436,51.328
	c0.813,3.653,4.052,6.138,7.645,6.137c0.565,0,1.139-0.062,1.712-0.189c4.227-0.942,6.89-5.132,5.948-9.359l-10.676-47.917h62.945
	v11.862c0,4.33,3.511,7.841,7.841,7.841h57.235c4.33,0,7.841-3.511,7.841-7.841v-11.862h160.671v11.862
	c0,4.33,3.511,7.841,7.841,7.841h57.235c4.33,0,7.841-3.511,7.841-7.841v-11.862h62.945l-33.163,148.833
	c-1.53,6.863-9.426,12.039-18.367,12.039H91.333c-8.942,0-16.837-5.175-18.367-12.039l-16.86-75.666
	c-0.942-4.227-5.132-6.894-9.359-5.948c-4.227,0.942-6.89,5.132-5.948,9.359l16.86,75.666c3.138,14.086,17.3,24.309,33.673,24.309
	h329.334c16.373,0,30.535-10.224,33.673-24.309l35.291-158.38c0.026-0.117,0.038-0.235,0.057-0.352
	c0.028-0.16,0.061-0.318,0.078-0.479C489.783,284.844,489.785,284.703,489.793,284.561z M159.983,295.974H118.43V272.25h41.553
	V295.974z M393.57,295.974h-41.553V272.25h41.553V295.974z M409.252,276.272v-11.863c0-4.33-3.511-7.841-7.841-7.841h-57.235
	c-4.33,0-7.841,3.511-7.841,7.841v11.863H175.665v-11.863c0-4.33-3.511-7.841-7.841-7.841h-57.235c-4.33,0-7.841,3.511-7.841,7.841
	v11.863H39.803l33.163-148.834c1.53-6.863,9.426-12.038,18.367-12.038h329.334c8.942,0,16.837,5.175,18.367,12.038l33.163,148.834
	H409.252z"/>
<path d="M146.266,135.052c-4.267-0.723-8.318,2.148-9.043,6.417l-15.677,92.284c-0.726,4.269,2.147,8.318,6.417,9.043
	c0.444,0.075,0.887,0.112,1.323,0.112c3.753,0,7.072-2.704,7.721-6.529l15.677-92.284
	C153.409,139.825,150.536,135.777,146.266,135.052z"/>
<path d="M201.14,134.969c-4.314-0.353-8.11,2.834-8.477,7.149l-7.839,92.284c-0.367,4.315,2.834,8.11,7.149,8.477
	c0.226,0.019,0.45,0.028,0.672,0.028c4.029,0,7.457-3.089,7.804-7.178l7.839-92.284C208.656,139.13,205.455,135.335,201.14,134.969z
	"/>
<path d="M256,134.941c-4.33,0-7.841,3.511-7.841,7.841v92.284c0,4.33,3.511,7.841,7.841,7.841c4.33,0,7.841-3.511,7.841-7.841
	v-92.284C263.841,138.451,260.33,134.941,256,134.941z"/>
<path d="M319.336,142.118c-0.367-4.314-4.153-7.512-8.477-7.149c-4.315,0.367-7.516,4.161-7.149,8.477l7.839,92.284
	c0.348,4.089,3.774,7.178,7.804,7.178c0.222,0,0.446-0.009,0.672-0.028c4.315-0.367,7.516-4.161,7.149-8.477L319.336,142.118z"/>
<path d="M374.777,141.469c-0.726-4.269-4.774-7.144-9.043-6.417c-4.27,0.726-7.143,4.774-6.417,9.043l15.677,92.284
	c0.65,3.825,3.966,6.529,7.721,6.529c0.436,0,0.878-0.037,1.323-0.112c4.27-0.726,7.143-4.774,6.417-9.043L374.777,141.469z"/>
<path d="M504.159,291.953h-22.182c-4.33,0-7.841-3.511-7.841-7.841s3.511-7.841,7.841-7.841h22.182c4.33,0,7.841,3.511,7.841,7.841
	S508.489,291.953,504.159,291.953z"/>
</svg>