<?xml version="1.0" encoding="iso-8859-1"?>
<!-- Uploaded to: SVG Repo, www.svgrepo.com, Generator: SVG Repo Mixer Tools -->
<svg height="800px" width="800px" version="1.1" id="Layer_1" xmlns="http://www.w3.org/2000/svg" xmlns:xlink="http://www.w3.org/1999/xlink" 
	 viewBox="0 0 511.999 511.999" xml:space="preserve">
<path style="fill:#C7AC91;" d="M258.723,320.631h-5.474c-113.95,0-211.617,77.232-232.094,183.534l0,0h469.663l0,0
	C470.34,397.863,372.673,320.631,258.723,320.631z"/>
<path style="fill:#BC9A7B;" d="M258.723,320.631h-5.474c-3.043,0-6.073,0.067-9.092,0.175
	c110.017,3.982,203.072,79.896,223.003,183.359l0,0h23.658l0,0C470.34,397.863,372.673,320.631,258.723,320.631z"/>
<circle style="fill:#C9E7F8;" cx="255.984" cy="222.482" r="214.647"/>
<path style="fill:#A2D8F4;" d="M470.632,222.48c0-118.546-96.1-214.645-214.645-214.645v429.291
	C374.532,437.126,470.632,341.026,470.632,222.48z"/>
<path style="fill:#EAB200;" d="M216.799,284.486l32.169,23.254c3.877,2.802,10.161,2.802,14.037,0l32.169-23.254
	c6.253-4.52,1.824-12.249-7.019-12.249h-64.338C214.975,272.237,210.547,279.966,216.799,284.486z"/>
<path style="fill:#C7AC91;" d="M438.172,42.512L438.172,42.512c-6.065-14.827-23.933-20.741-37.647-12.46l-93.058,56.196l0,0
	l-0.039-0.008C290.48,82.588,273.24,80.762,256,80.76l0,0c-0.004,0-0.008,0-0.013,0s-0.008,0-0.013,0l0,0
	c-17.24,0.002-34.48,1.828-51.429,5.479l-0.039,0.008l0,0L111.45,30.052c-13.713-8.281-31.581-2.368-37.647,12.459l0,0
	c-2.109,5.155-2.513,10.851-1.153,16.253l19.715,78.311c4.049,16.084,2.006,33.017-5.347,47.883
	c-4.991,10.094-9.5,25.414-9.5,47.827c0,77.207,74.963,120.634,127.726,141.637c32.583,12.971,68.93,12.971,101.513-0.002
	c52.755-21.004,127.702-64.431,127.702-141.635c0-22.413-4.509-37.733-9.5-47.827c-7.352-14.867-9.396-31.8-5.347-47.883
	l19.715-78.311C440.685,53.363,440.281,47.667,438.172,42.512z"/>
<path style="fill:#BC9A7B;" d="M439.325,58.765c1.36-5.402,0.956-11.097-1.153-16.253l0,0c-5.821-14.229-22.51-20.24-35.968-13.383
	c5.363,2.717,9.843,7.298,12.332,13.383l0,0c2.109,5.155,2.513,10.851,1.153,16.253l-19.715,78.311
	c-4.049,16.084-2.007,33.017,5.347,47.883c4.991,10.094,9.5,25.414,9.5,47.827c0,77.204-74.947,120.631-127.702,141.635
	c-12.564,5.003-25.689,8.067-38.942,9.212c21.116,1.824,42.557-1.241,62.578-9.212c52.755-21.004,127.702-64.431,127.702-141.635
	c0-22.413-4.509-37.733-9.5-47.827c-7.352-14.867-9.396-31.8-5.347-47.883L439.325,58.765z"/>
<path style="fill:#EEE5DD;" d="M216.799,284.486l32.169,23.254c3.877,2.802,10.161,2.802,14.037,0l32.169-23.254
	c6.253-4.52,1.824-12.249-7.019-12.249h-64.338C214.975,272.237,210.547,279.966,216.799,284.486z"/>
<path style="fill:#DECCBC;" d="M288.156,272.237H256.08v37.602c2.509-0.017,5.011-0.715,6.925-2.099l32.169-23.254
	C301.427,279.966,296.999,272.237,288.156,272.237z"/>
<g>
	<path style="fill:#B59276;" d="M120.529,154.754l-32.54-91.977c-2.273-6.426,0.028-13.579,5.622-17.473l0,0
		c5.235-3.644,12.191-3.616,17.396,0.07l76.161,53.927C187.169,99.301,135.655,98.778,120.529,154.754z"/>
	<path style="fill:#B59276;" d="M390.914,154.754l32.54-91.977c2.273-6.426-0.028-13.579-5.622-17.473l0,0
		c-5.235-3.644-12.191-3.616-17.396,0.07l-76.162,53.927C324.274,99.301,375.789,98.778,390.914,154.754z"/>
</g>
<path d="M141.815,444.347c-0.666,0.337-6.697,3.503-13.211,10.875c-2.866,3.243-2.559,8.194,0.683,11.059
	c1.491,1.317,3.341,1.964,5.185,1.964c2.168,0,4.326-0.894,5.874-2.647c4.424-5.007,8.409-7.195,8.594-7.295
	c3.82-1.969,5.343-6.656,3.401-10.498C150.389,443.944,145.674,442.397,141.815,444.347z"/>
<path d="M183.898,203.292h-10.354c-4.328,0-7.835,3.508-7.835,7.835c0,4.327,3.507,7.835,7.835,7.835h10.354
	c4.328,0,7.835-3.508,7.835-7.835C191.733,206.8,188.226,203.292,183.898,203.292z"/>
<path d="M338.454,203.292h-10.354c-4.328,0-7.835,3.508-7.835,7.835c0,4.327,3.507,7.835,7.835,7.835h10.354
	c4.328,0,7.835-3.508,7.835-7.835C346.289,206.8,342.783,203.292,338.454,203.292z"/>
<path d="M200.863,105.262c0.227-2.931-1.208-5.744-3.715-7.28l-82.936-50.885c-8.821-5.412-20.34-3.394-26.796,4.695
	c-2.698,3.382-2.146,8.312,1.237,11.011c3.382,2.699,8.312,2.147,11.012-1.237c1.531-1.917,4.262-2.394,6.354-1.113l78.373,48.086
	c-2.34,9.19-10.853,29.779-40.912,38.704c-4.148,1.232-6.512,5.593-5.281,9.742c1.01,3.405,4.129,5.607,7.508,5.607
	c0.739,0,1.49-0.106,2.233-0.326C197.04,147.688,200.73,106.987,200.863,105.262z"/>
<path d="M364.059,162.265c0.745,0.22,1.495,0.326,2.233,0.326c3.378,0,6.498-2.203,7.508-5.607c1.233-4.148-1.132-8.51-5.281-9.742
	c-30.083-8.931-38.586-29.546-40.915-38.702l78.376-48.088c2.091-1.284,4.822-0.805,6.354,1.113
	c2.699,3.382,7.628,3.937,11.012,1.237c3.382-2.698,3.935-7.629,1.237-11.011c-6.455-8.088-17.973-10.107-26.796-4.695
	l-82.936,50.885c-2.506,1.538-3.94,4.349-3.715,7.28C311.269,106.987,314.959,147.688,364.059,162.265z"/>
<path d="M212.222,290.835l32.168,23.254c1.156,0.837,2.437,1.531,3.799,2.085v4.099c-0.01,0.168-0.025,0.335-0.025,0.506
	c0,0.077,0.007,0.154,0.008,0.231c-0.09,3.412-2.124,6.488-5.256,7.879c-3.172,1.406-6.896,0.828-9.49-1.474l-9.184-8.149
	c-3.234-2.873-8.188-2.576-11.06,0.66c-2.873,3.236-2.577,8.188,0.66,11.061l9.183,8.149c4.571,4.055,10.41,6.177,16.313,6.177
	c3.365,0,6.751-0.689,9.935-2.102c2.524-1.121,4.782-2.647,6.738-4.466c1.956,1.819,4.214,3.346,6.738,4.466
	c3.184,1.413,6.569,2.103,9.935,2.102c5.902,0,11.743-2.122,16.312-6.177l9.184-8.149c3.237-2.872,3.533-7.825,0.66-11.061
	c-2.869-3.235-7.822-3.532-11.06-0.66l-9.185,8.149c-2.593,2.302-6.319,2.88-9.489,1.474c-3.132-1.39-5.167-4.467-5.256-7.879
	c0.001-0.077,0.008-0.154,0.008-0.231v-4.627c1.342-0.551,2.606-1.237,3.748-2.062l32.168-23.254
	c5.26-3.802,7.378-9.716,5.527-15.435c-2.128-6.579-9.014-10.999-17.135-10.999h-64.339c-8.12,0-15.007,4.42-17.135,10.999
	C204.845,281.12,206.962,287.034,212.222,290.835z M287.919,280.072l-29.49,21.319c-0.394,0.284-1.266,0.616-2.429,0.616
	c-1.163,0-2.035-0.332-2.429-0.616l-29.491-21.319H287.919z"/>
<path d="M498.524,502.683c-9.759-50.663-37.181-96.91-77.532-131.116c35.709-39.481,57.487-91.786,57.487-149.086
	c0-46.012-13.883-90.019-40.175-127.519l8.63-34.283c1.78-7.073,1.262-14.381-1.5-21.133c-5.243-12.814-17.585-21.094-31.444-21.094
	c-6.15,0-12.203,1.692-17.504,4.894l-20.007,12.082C340.558,12.237,299.015,0,256,0c-43.016,0-84.558,12.237-120.481,35.427
	l-20.006-12.082c-5.302-3.202-11.354-4.895-17.504-4.895c-13.86,0-26.201,8.28-31.444,21.095c-2.762,6.751-3.28,14.058-1.5,21.133
	l8.637,34.309c-9.606,13.712-17.665,28.461-23.937,43.921c-1.628,4.009,0.304,8.579,4.313,10.206
	c0.965,0.392,1.963,0.577,2.943,0.577c3.095,0,6.029-1.847,7.263-4.891c4.086-10.067,8.99-19.81,14.625-29.131l5.87,23.32
	c3.535,14.038,1.841,29.13-4.77,42.497c-4.551,9.201-7.6,19.924-9.139,32.012l-5.585-2.126c-4.043-1.538-8.57,0.491-10.11,4.536
	c-1.539,4.044,0.492,8.57,4.536,10.109l10.017,3.812c-0.017,0.98-0.032,1.961-0.032,2.955c0,17.71,3.692,34.549,11.002,50.42H58.292
	c-5.912-19.21-9.102-39.601-9.102-60.724c0-17.948,2.302-35.76,6.843-52.944c1.106-4.184-1.389-8.471-5.573-9.576
	c-4.19-1.108-8.471,1.39-9.576,5.573c-4.886,18.488-7.363,37.649-7.363,56.947c0,57.3,21.778,109.606,57.487,149.086
	c-40.351,34.206-67.772,80.453-77.532,131.116c-0.443,2.295,0.163,4.669,1.652,6.471c1.489,1.802,3.704,2.847,6.041,2.847h98.41
	c0.001,0,0.001,0,0.002,0s0.001,0,0.002,0H392.41c0.002,0,0.005,0,0.008,0s0.005,0,0.008,0h98.404c2.337,0,4.553-1.044,6.041-2.847
	C498.361,507.349,498.967,504.978,498.524,502.683z M462.809,222.48c0,21.123-3.19,41.514-9.102,60.724h-22.403
	c7.31-15.87,11.001-32.71,11.001-50.42c0-0.995-0.016-1.975-0.032-2.955l10.017-3.812c4.044-1.54,6.074-6.065,4.536-10.109
	c-1.541-4.045-6.066-6.074-10.11-4.536l-5.585,2.126c-1.539-12.088-4.588-22.81-9.139-32.012c-6.611-13.366-8.305-28.46-4.77-42.497
	l5.876-23.343C452.582,147.81,462.809,184.404,462.809,222.48z M256,15.67c37.391,0,73.58,9.944,105.416,28.855l-55.348,33.424
	c-16.446-3.33-33.271-5.021-50.054-5.023c-0.029,0-0.061,0-0.091,0c-16.762,0.006-33.561,1.695-49.99,5.023l-55.348-33.424
	C182.419,25.614,218.608,15.67,256,15.67z M85.408,235.798l95.267,36.257c0.917,0.349,1.86,0.514,2.786,0.514
	c3.157,0,6.133-1.923,7.324-5.05c1.539-4.044-0.492-8.57-4.536-10.109L85.987,219.251c1.136-11.923,3.831-22.256,8.066-30.82
	c8.261-16.703,10.364-35.621,5.921-53.27L89.76,94.589c0-0.001-0.001-0.003-0.001-0.004L80.26,56.852
	c-0.959-3.808-0.679-7.741,0.805-11.374c2.823-6.899,9.472-11.358,16.941-11.358c3.294,0,6.546,0.912,9.404,2.639l93.058,56.196
	c1.709,1.031,3.789,1.364,5.738,0.944c16.301-3.512,33.023-5.296,49.705-5.304c0.028,0,0.059,0,0.087,0c0.003,0,0.004,0,0.013,0
	c16.706,0.002,33.454,1.786,49.856,5.319c1.938,0.408,3.966,0.066,5.663-0.96l93.058-56.197c2.858-1.726,6.11-2.638,9.404-2.638
	c7.468,0,14.119,4.459,16.941,11.358c1.486,3.633,1.764,7.567,0.805,11.374l-9.499,37.733c0,0.001-0.001,0.003-0.001,0.004
	l-10.214,40.573c-4.443,17.648-2.34,36.565,5.921,53.27c4.235,8.564,6.93,18.896,8.066,30.82L325.749,257.41
	c-4.044,1.54-6.074,6.065-4.536,10.109c1.191,3.128,4.166,5.05,7.324,5.05c0.927,0,1.869-0.165,2.786-0.514l95.267-36.257
	c-0.477,17.596-5.123,33.345-12.701,47.406H333c-4.328,0-7.835,3.508-7.835,7.835s3.507,7.835,7.835,7.835h70.771
	c-24.385,32.204-64.312,54.096-99.9,68.266c-15.29,6.087-31.39,9.174-47.857,9.174c-0.001,0-0.002,0-0.003,0
	c-16.468,0-32.57-3.086-47.858-9.172c-35.597-14.17-75.531-36.062-99.92-68.268H179c4.328,0,7.835-3.508,7.835-7.835
	s-3.507-7.835-7.835-7.835H98.111C90.533,269.142,85.887,253.394,85.408,235.798z M89.295,298.875
	c7.101,11.078,16.11,21.622,27.029,31.592c21.889,19.986,50.834,37.224,86.033,51.236c17.139,6.823,35.191,10.283,53.651,10.283
	c0.002,0,0.002,0,0.004,0c18.459,0,36.512-3.461,53.653-10.286c35.193-14.012,64.134-31.25,86.02-51.236
	c10.915-9.967,19.922-20.512,27.02-31.589h25.474c-30.451,76.333-105.116,130.416-192.181,130.416S94.269,375.207,63.818,298.875
	H89.295z M399.936,496.33c-3.138-38.082-28.599-51.401-29.752-51.984c-3.863-1.95-8.606-0.42-10.557,3.442
	c-1.951,3.862-0.436,8.559,3.426,10.51c0.808,0.427,18.298,10.032,21.133,38.03h-256.37c0.296-2.919,0.748-5.746,1.378-8.44
	c0.986-4.213-1.63-8.428-5.843-9.415c-4.214-0.985-8.428,1.63-9.416,5.843c-0.898,3.84-1.522,7.859-1.868,12.012H30.883
	c10.582-43.827,35.494-83.63,71.061-113.492c40.008,38.45,94.317,62.123,154.055,62.123s114.047-23.673,154.055-62.123
	c35.569,29.863,60.481,69.667,71.061,113.492h-81.179V496.33z"/>
</svg>